<mxfile host="65bd71144e">
    <diagram id="axijVH8dJ8G3RD3FxAs-" name="Страница 1">
        <mxGraphModel dx="698" dy="551" grid="1" gridSize="10" guides="1" tooltips="1" connect="1" arrows="1" fold="1" page="1" pageScale="1" pageWidth="827" pageHeight="1169" math="0" shadow="0">
            <root>
                <mxCell id="0"/>
                <mxCell id="1" parent="0"/>
                <mxCell id="2" value="Бухгалтерия ОС" style="swimlane;startSize=20;" vertex="1" parent="1">
                    <mxGeometry x="60" y="30" width="670" height="530" as="geometry"/>
                </mxCell>
            </root>
        </mxGraphModel>
    </diagram>
</mxfile>